<svg fill="#fff" xmlns="http://www.w3.org/2000/svg" width="64" height="64" viewBox="0 0 640 640" shape-rendering="geometricPrecision" text-rendering="geometricPrecision" image-rendering="optimizeQuality" fill-rule="evenodd" clip-rule="evenodd"><path d="M613.177 48.438v204.581H408.596l-24.119.012 17.055-17.067 59.647-59.647a205.31 205.31 0 0 0-12.284-10.96 202.213 202.213 0 0 0-17.61-12.898l.012-.012c-31.347-20.445-68.812-32.327-109.088-32.327h-.083v-.036c-55.158.012-105.131 22.406-141.273 58.56-36.142 36.142-58.524 86.08-58.56 141.19h.036v.249h-.036c.012 55.158 22.406 105.143 58.56 141.273 36.154 36.154 86.091 58.524 141.19 58.56v-.036h.402v.036a200.224 200.224 0 0 0 56.93-8.292v-.012a199.318 199.318 0 0 0 29.753-11.527c48.91-23.646 86.74-66.686 103.513-119.104l2.22-6.933h122.954l-2.457 11.976-.07.319v.035a319.09 319.09 0 0 1-18.426 58.548v.048a319.811 319.811 0 0 1-28.76 53.08C530.676 583.636 432.986 640.01 322.209 640.01h-.083v-.035c-88.36-.024-168.38-35.859-226.231-93.71v-.047c-57.816-57.84-93.627-137.79-93.674-226.054h-.036v-.248h.036c.023-88.324 35.858-168.321 93.745-226.196l-.024-.024C153.793 35.857 233.755.07 322.043.023v-.036h.319v.036c45.379.023 88.584 9.508 127.679 26.551a335.597 335.597 0 0 1 18.78 8.918c28.524 14.728 54.556 33.661 77.257 55.925l50.055-50.043 17.044-17.056v24.119z"/></svg>